# xmcd
#
# Track frame offsets: 
#        150
#        9942
#        32492
#        49260
#        67780
#        83322
#        100532
#        117790
#        135217
#        147397
#        174482
#        186160
#        204945
#        221920
#        249085
#        262930
#
# Disc length: 3666 seconds
#
# Revision: 0
# Processed by: cddbd v1.5.2PL0 Copyright (c) Steve Scherf et al.
# Submitted via: ExactAudioCopy v0.99pb4
#
DISCID=c00e5010
DTITLE=Various Artist - Bishopstock Blues Festival '99
DYEAR=1999
DGENRE=Blues
TTITLE0=Otis Grand - Guitars on Fire
TTITLE1=Buddy Guy - She's a Superstar
TTITLE2=Carey Bell - Going Back to Mississippi
TTITLE3=Guitar Shorty - I Want to Report a Crime
TTITLE4=Buick 6 - What I Love
TTITLE5=Little Charlie and The Nightcats - New Old Lady
TTITLE6=Shemekia Copeland - I Always Get My Man
TTITLE7=Blue Bishops - Words Left Unsaid
TTITLE8=Taj Mahal - Mind Your Own Business
TTITLE9=Paul Lamb and The Kingsnakes - Forever Blue
TTITLE10=Beausoleil - Reel de Dennis McGee
TTITLE11=Anson Funderburgh and The Rockets feat. Sam Myers - It's You
TTITLE12=Reconsider - Saviour
TTITLE13=Michael Hill's Blues Mob - Soul Doin' Time
TTITLE14=The Nightporters - Let 'er Roll
TTITLE15=Charlie Musselwhite - Leaving Blues
EXTD=
EXTT0=
EXTT1=
EXTT2=
EXTT3=
EXTT4=
EXTT5=
EXTT6=
EXTT7=
EXTT8=
EXTT9=
EXTT10=
EXTT11=
EXTT12=
EXTT13=
EXTT14=
EXTT15=
PLAYORDER=
